<svg id="Layer_1" data-name="Layer 1" xmlns="http://www.w3.org/2000/svg" width="20" height="20" viewBox="0 0 20 20"><title>360</title><path d="M5.37,7.33a1.87,1.87,0,0,0,.44.32,1.1,1.1,0,0,0,.52.12.89.89,0,0,0,.52-.13A.44.44,0,0,0,7,7.25.64.64,0,0,0,7,7a.44.44,0,0,0-.18-.2,1.12,1.12,0,0,0-.36-.12,3.12,3.12,0,0,0-.58,0V5.91a2.43,2.43,0,0,0,.49,0,.92.92,0,0,0,.32-.12.47.47,0,0,0,.17-.19.54.54,0,0,0,.05-.24A.46.46,0,0,0,6.75,5a.57.57,0,0,0-.4-.13.87.87,0,0,0-.42.1,2.29,2.29,0,0,0-.4.28L5,4.61a2.56,2.56,0,0,1,.64-.41,1.8,1.8,0,0,1,.74-.15A2.25,2.25,0,0,1,7,4.14a1.36,1.36,0,0,1,.47.23,1.1,1.1,0,0,1,.31.37,1.12,1.12,0,0,1,.11.51.9.9,0,0,1-.19.58,1.36,1.36,0,0,1-.54.39v0a1.33,1.33,0,0,1,.62.37A1,1,0,0,1,8,7.31a1.1,1.1,0,0,1-.13.54,1.22,1.22,0,0,1-.35.4A1.63,1.63,0,0,1,7,8.5a2.23,2.23,0,0,1-.62.09,2.19,2.19,0,0,1-.91-.17A1.73,1.73,0,0,1,4.9,8Z"/><path d="M11,5.18a1.07,1.07,0,0,0-.3-.22.83.83,0,0,0-.71,0,.69.69,0,0,0-.28.23,1.32,1.32,0,0,0-.2.42,2.68,2.68,0,0,0-.09.64A1,1,0,0,1,9.57,6a1.35,1.35,0,0,1,.23-.14L10,5.81l.22,0a1.57,1.57,0,0,1,.52.08,1.14,1.14,0,0,1,.41.25,1.1,1.1,0,0,1,.27.42,1.69,1.69,0,0,1,.1.6,1.52,1.52,0,0,1-.12.61,1.45,1.45,0,0,1-.31.46,1.3,1.3,0,0,1-.46.29,1.61,1.61,0,0,1-1.17,0A1.43,1.43,0,0,1,9,8.08a1.93,1.93,0,0,1-.37-.67,3.11,3.11,0,0,1-.14-1A3.38,3.38,0,0,1,8.6,5.36,2.19,2.19,0,0,1,9,4.63a1.56,1.56,0,0,1,.56-.43,1.63,1.63,0,0,1,.66-.14,1.69,1.69,0,0,1,.75.15,1.85,1.85,0,0,1,.52.37Zm-.88,2.64a.52.52,0,0,0,.39-.17.76.76,0,0,0,.16-.54.63.63,0,0,0-.16-.49.6.6,0,0,0-.41-.14.69.69,0,0,0-.34.1,1,1,0,0,0-.32.34,1.84,1.84,0,0,0,.1.43,1,1,0,0,0,.16.28.52.52,0,0,0,.2.15A.57.57,0,0,0,10.08,7.83Z"/><path d="M13.54,8.58a1.38,1.38,0,0,1-.64-.15A1.35,1.35,0,0,1,12.41,8a2.23,2.23,0,0,1-.32-.71,3.83,3.83,0,0,1-.11-1,3.75,3.75,0,0,1,.11-1,2.19,2.19,0,0,1,.32-.7,1.3,1.3,0,0,1,.49-.43,1.52,1.52,0,0,1,1.28,0,1.3,1.3,0,0,1,.49.43,2.19,2.19,0,0,1,.32.7,3.75,3.75,0,0,1,.11,1,3.83,3.83,0,0,1-.11,1,2.23,2.23,0,0,1-.32.71,1.35,1.35,0,0,1-.49.44A1.38,1.38,0,0,1,13.54,8.58Zm0-.78a.46.46,0,0,0,.24-.07A.53.53,0,0,0,14,7.5,1.67,1.67,0,0,0,14.1,7a5,5,0,0,0,0-.73,4.89,4.89,0,0,0,0-.73A1.52,1.52,0,0,0,14,5.13a.51.51,0,0,0-.19-.22.48.48,0,0,0-.24-.06.47.47,0,0,0-.23.06.51.51,0,0,0-.19.22,1.58,1.58,0,0,0-.13.45,4.53,4.53,0,0,0,0,.73A4.59,4.59,0,0,0,13,7a1.74,1.74,0,0,0,.13.46.53.53,0,0,0,.19.24A.45.45,0,0,0,13.54,7.8Z"/><path d="M9.13,11.43c-4.06-.06-7.24-.52-7.24-1.24,0-.33.36-.64,1-.91L3,8.65C1.47,9.06.5,9.64.5,10.22c0,1.43,3.72,2.69,8.63,2.83v1.71l3.14-2.51L9.13,9.88Z"/><path d="M17,8.65l.13.64c.63.27,1,.58,1,.91,0,.66-2,1.1-5.53,1.21l.68.79-.68.8c4.39-.27,6.92-1.45,6.92-2.78C19.5,9.64,18.47,9.06,17,8.65Z"/></svg>