<svg id="Layer_1" data-name="Layer 1" xmlns="http://www.w3.org/2000/svg" width="20" height="20" viewBox="0 0 20 20"><defs><style>.cls-1{fill:#fff;}</style></defs><title>fullscreen-light</title><path class="cls-1" d="M7.5,11.8a.8.8,0,0,0-.6.2L3.8,15.1v-2a.7.7,0,0,0-.7-.7.7.7,0,0,0-.7.7v3.8a.7.7,0,0,0,.7.7H6.9a.7.7,0,0,0,0-1.5h-2l3.1-3.1a.7.7,0,0,0,0-1C7.8,11.9,7.7,11.8,7.5,11.8Z"/><path class="cls-1" d="M16.9,2.4H13.1a.7.7,0,0,0-.7.7.7.7,0,0,0,.7.7h2L11.9,7.1a.7.7,0,0,0,0,1c.2.2.3.2.6.2a.7.7,0,0,0,.6-.3l3.1-3.1v2a.7.7,0,1,0,1.5,0V3.1A.7.7,0,0,0,16.9,2.4Z"/><path class="cls-1" d="M4.9,3.9h2a.7.7,0,0,0,.7-.7.7.7,0,0,0-.7-.7H3.1a.7.7,0,0,0-.7.7V6.9a.7.7,0,0,0,.7.7.7.7,0,0,0,.7-.7v-2L6.9,7.9a.7.7,0,0,0,.6.3c.3,0,.4,0,.6-.2a.7.7,0,0,0,0-1Z"/><path class="cls-1" d="M16.9,12.4a.7.7,0,0,0-.7.7v2l-3.1-3.2a.8.8,0,0,0-.6-.2c-.2,0-.3.1-.4.3a.7.7,0,0,0,0,1l3.1,3.1h-2a.7.7,0,0,0,0,1.5h3.7a.7.7,0,0,0,.7-.7V13.1A.7.7,0,0,0,16.9,12.4Z"/></svg>