<svg id="Layer_1" data-name="Layer 1" xmlns="http://www.w3.org/2000/svg" width="20" height="20" viewBox="0 0 20 20"><title>muted</title><path d="M16.76,10.18l2.11-2.11a.55.55,0,0,0,0-.74.49.49,0,0,0-.36-.17.46.46,0,0,0-.36.14L16,9.48,13.82,7.3a.5.5,0,0,0-.36-.14h0a.48.48,0,0,0-.35.17.55.55,0,0,0,0,.74l2.11,2.11-2.11,2.11a.55.55,0,0,0,0,.74.5.5,0,0,0,.72,0L16,10.88l2.18,2.18a.48.48,0,0,0,.72,0,.55.55,0,0,0,0-.74Z"/><path d="M4.83,7.35H1.68a.94.94,0,0,0-.94.94V12.5a.94.94,0,0,0,.94.94h.09a1.28,1.28,0,0,0,.29,0h3L11,18.59v-17Z"/></svg>