<svg id="Layer_1" data-name="Layer 1" xmlns="http://www.w3.org/2000/svg" width="20" height="20" viewBox="0 0 20 20"><defs><style>.cls-1{fill:#fff;}</style></defs><title>volume-light</title><path class="cls-1" d="M15.28,15.71a.47.47,0,0,1-.3-.84,6.56,6.56,0,0,0,2.41-4.79A6.54,6.54,0,0,0,15,5.3a.47.47,0,1,1,.6-.73,7.52,7.52,0,0,1,2.75,5.52,7.53,7.53,0,0,1-2.75,5.52A.47.47,0,0,1,15.28,15.71Z"/><path class="cls-1" d="M13.56,13.57a.47.47,0,0,1-.28-.85,3.31,3.31,0,0,0,1.52-2.62,3.31,3.31,0,0,0-1.52-2.62.47.47,0,0,1,.56-.76,4.21,4.21,0,0,1,1.91,3.39,4.21,4.21,0,0,1-1.91,3.39A.47.47,0,0,1,13.56,13.57Z"/><path class="cls-1" d="M4.77,7.25H1.62a.94.94,0,0,0-.94.94v4.21a.94.94,0,0,0,.94.94h.09a1.28,1.28,0,0,0,.29,0H5l5.88,5.11V1.5Z"/></svg>