<svg id="Layer_1" data-name="Layer 1" xmlns="http://www.w3.org/2000/svg" width="20" height="20" viewBox="0 0 20 20"><defs><style>.cls-1{fill:#fff;}</style></defs><title>zoom-out-light</title><path class="cls-1" d="M7.81.85a7.12,7.12,0,1,0,4.48,12.64l.07-.06.06.06L17.89,19a.67.67,0,0,0,.92,0,.65.65,0,0,0,0-.92l-5.53-5.53.06-.07A7.11,7.11,0,0,0,7.81.85Zm0,12.93A5.82,5.82,0,1,1,13.63,8,5.82,5.82,0,0,1,7.81,13.78Z"/><path class="cls-1" d="M10.72,7.32H4.9a.65.65,0,0,0,0,1.3h5.82a.65.65,0,0,0,0-1.3Z"/></svg>