<svg id="Layer_1" data-name="Layer 1" xmlns="http://www.w3.org/2000/svg" width="20" height="20" viewBox="0 0 20 20"><defs><style>.cls-1{fill:#fff;}</style></defs><title>zoom-in-light</title><path class="cls-1" d="M8,.85a7.12,7.12,0,1,0,4.48,12.64l.07-.06.06.06L18,19A.67.67,0,0,0,19,19,.65.65,0,0,0,19,18l-5.53-5.53.06-.07A7.11,7.11,0,0,0,8,.85ZM8,13.78A5.81,5.81,0,1,1,13.78,8,5.82,5.82,0,0,1,8,13.78Z"/><path class="cls-1" d="M8,11.53a.65.65,0,0,0,.65-.65V8.62h2.26a.65.65,0,0,0,0-1.3H8.62V5.06a.65.65,0,1,0-1.3,0V7.32H5.06a.65.65,0,0,0,0,1.3H7.32v2.26A.65.65,0,0,0,8,11.53Z"/></svg>